<svg width="217.16" height="132.71" xmlns="http://www.w3.org/2000/svg" xmlns:xlink="http://www.w3.org/1999/xlink"><defs><linearGradient id="b"><stop stop-color="#FFF" offset="0"/><stop stop-color="#FFF" stop-opacity="0" offset="1"/></linearGradient><linearGradient id="a"><stop stop-color="#96BEFF" offset="0"/><stop stop-color="#09719F" offset="1"/></linearGradient><linearGradient x1=".481" y1=".151" x2=".5" xlink:href="#a" y2=".828" id="c"/><linearGradient x1=".409" y1="-.204" x2=".501" xlink:href="#b" y2=".903" id="d"/></defs><title>Layer 1</title><g fill-rule="evenodd"><path fill="url(#c)" d="M94.43-393.956c-32.47 0-61.35 15.49-79.62 39.5-3.99-.75-8.11-1.13-12.31-1.13-36.81 0-66.66 29.86-66.66 66.66s29.85 66.69 66.66 66.69c6.75 0 13.26-1.01 19.4-2.88 18.23 19.18 44.01 31.16 72.53 31.16 15.97 0 31.05-3.75 44.44-10.41 13.39 6.66 28.48 10.41 44.44 10.41 32.87 0 62.05-15.9 80.28-40.41 29.9-.25 54.06-24.61 54.06-54.56 0-27.61-20.53-50.43-47.15-54.03-17.15-30.44-49.78-51-87.19-51-15.97 0-31.05 3.74-44.44 10.4-13.39-6.66-28.47-10.4-44.44-10.4z" transform="translate(29.799 182.98) scale(.46448)"/><path fill="url(#d)" d="M92.41-386.064c-28.49 0-54.19 13.85-70.12 34.78-2.77 3.65-7.19 5.37-11.69 4.53-3.26-.6-6.64-.93-10.12-.93-29.08 0-54.72 25.64-54.72 54.72 0 3.83.29 5.13.19 3.53.87 13.73 10.87 25.15 24.37 27.81 32.07 6.34 75.55 3.48 127.22-9.34 41.694-10.35 86.57-26.18 131.12-44a30.304 30.304 0 0 0 7.754-51.72c-14.97-12.06-34.36-19.38-55.125-19.38-13.951 0-27.418 3.34-39.124 9.16a11.83 11.83 0 0 1-10.625 0c-11.707-5.82-25.17-9.16-39.13-9.16z" transform="translate(29.799 182.98) scale(.46448)"/><path fill="url(#c)" d="M94.43-393.956c-32.47 0-61.35 15.49-79.62 39.5-3.99-.75-8.11-1.13-12.31-1.13-36.81 0-66.66 29.86-66.66 66.66s29.85 66.69 66.66 66.69c6.75 0 13.26-1.01 19.4-2.88 18.23 19.18 44.01 31.16 72.53 31.16 15.97 0 31.05-3.75 44.44-10.41 13.39 6.66 28.48 10.41 44.44 10.41 32.87 0 62.05-15.9 80.28-40.41 29.9-.25 54.06-24.61 54.06-54.56 0-27.61-20.53-50.43-47.15-54.03-17.15-30.44-49.78-51-87.19-51-15.97 0-31.05 3.74-44.44 10.4-13.39-6.66-28.47-10.4-44.44-10.4z" transform="translate(69.612 222.8) scale(.46448)"/><path fill="url(#d)" d="M92.41-386.064c-28.49 0-54.19 13.85-70.12 34.78-2.77 3.65-7.19 5.37-11.69 4.53-3.26-.6-6.64-.93-10.12-.93-29.08 0-54.72 25.64-54.72 54.72 0 3.83.29 5.13.19 3.53.87 13.73 10.87 25.15 24.37 27.81 32.07 6.34 75.55 3.48 127.22-9.34 41.694-10.35 86.57-26.18 131.12-44a30.304 30.304 0 0 0 7.754-51.72c-14.97-12.06-34.36-19.38-55.125-19.38-13.951 0-27.418 3.34-39.124 9.16a11.83 11.83 0 0 1-10.625 0c-11.707-5.82-25.17-9.16-39.13-9.16z" transform="translate(69.612 222.8) scale(.46448)"/></g></svg>