<svg width="217.16" height="132.71" xmlns="http://www.w3.org/2000/svg" xmlns:svg="http://www.w3.org/2000/svg" xmlns:xlink="http://www.w3.org/1999/xlink">
  <defs>
    <linearGradient id="linearGradient3359">
      <stop stop-color="rgb(255, 255, 255)" offset="0" id="stop3361"/>
      <stop stop-color="rgb(255, 255, 255)" stop-opacity="0" offset="1" id="stop3363"/>
    </linearGradient>
    <linearGradient id="linearGradient3341">
      <stop stop-color="rgb(150, 190, 255)" offset="0" id="stop3343"/>
      <stop stop-color="rgb(9, 113, 159)" offset="1" id="stop3345"/>
    </linearGradient>
    <linearGradient x1="0.48149" y1="0.15141" x2="0.5" xlink:href="#linearGradient3341" y2="0.82821" id="linearGradient4155"/>
    <linearGradient x1="0.40919" y1="-0.20433" x2="0.50054" xlink:href="#linearGradient3359" y2="0.90323" id="linearGradient4157"/>
  </defs>
  <metadata>image/svg+xmlOpenclipartweather symbols 32006-12-26T00:00:00https://openclipart.org/detail/18893/-by--18893sivvus</metadata>
  <g>
    <title>Layer 1</title>
    <g id="layer1">
      <g id="g4147">
        <g transform="matrix(0.46448,0,0,0.46448,29.799,182.98) " id="g2888">
          <path fill-rule="evenodd" fill="url(#linearGradient4155)" d="m94.43047,-393.9559c-32.47,0 -61.35,15.49 -79.62,39.5c-3.99,-0.75 -8.11,-1.13 -12.31,-1.13c-36.81,0 -66.66,29.86 -66.66,66.66s29.85,66.69 66.66,66.69c6.75,0 13.26,-1.01 19.4,-2.88c18.23,19.18 44.01,31.16 72.53,31.16c15.97,0 31.05,-3.75 44.44,-10.41c13.39,6.66 28.48,10.41 44.44,10.41c32.87,0 62.05,-15.9 80.28,-40.41c29.9,-0.25 54.06,-24.61 54.06,-54.56c0,-27.61 -20.53,-50.43 -47.15,-54.03c-17.15,-30.44 -49.78,-51 -87.19,-51c-15.97,0 -31.05,3.74 -44.44,10.4c-13.39,-6.66 -28.47,-10.4 -44.44,-10.4z" id="path2890"/>
          <path fill-rule="evenodd" fill="url(#linearGradient4157)" d="m92.4105,-386.0639c-28.49,0 -54.19,13.85 -70.12,34.78c-2.77,3.65 -7.19,5.37 -11.69,4.53c-3.26,-0.6 -6.64,-0.93 -10.12,-0.93c-29.08,0 -54.72,25.64 -54.72,54.72c0,3.83 0.29,5.13 0.19,3.53c0.87,13.73 10.87,25.15 24.37,27.81c32.07,6.34 75.55,3.48 127.22,-9.34c41.694,-10.35 86.569,-26.18 131.12,-44c9.988,-4.01 17.103,-13 18.697,-23.64s-2.571,-21.33 -10.943,-28.08c-14.971,-12.06 -34.361,-19.38 -55.125,-19.38c-13.952,0 -27.419,3.34 -39.125,9.16c-3.372,1.68 -7.254,1.68 -10.625,0c-11.707,-5.82 -25.169,-9.16 -39.129,-9.16z" id="path2892"/>
        </g>
        <g transform="matrix(0.46448,0,0,0.46448,69.612,222.8) " id="g2878">
          <path fill-rule="evenodd" fill="url(#linearGradient4155)" d="m94.43047,-393.9559c-32.47,0 -61.35,15.49 -79.62,39.5c-3.99,-0.75 -8.11,-1.13 -12.31,-1.13c-36.81,0 -66.66,29.86 -66.66,66.66s29.85,66.69 66.66,66.69c6.75,0 13.26,-1.01 19.4,-2.88c18.23,19.18 44.01,31.16 72.53,31.16c15.97,0 31.05,-3.75 44.44,-10.41c13.39,6.66 28.48,10.41 44.44,10.41c32.87,0 62.05,-15.9 80.28,-40.41c29.9,-0.25 54.06,-24.61 54.06,-54.56c0,-27.61 -20.53,-50.43 -47.15,-54.03c-17.15,-30.44 -49.78,-51 -87.19,-51c-15.97,0 -31.05,3.74 -44.44,10.4c-13.39,-6.66 -28.47,-10.4 -44.44,-10.4z" id="path2880"/>
          <path fill-rule="evenodd" fill="url(#linearGradient4157)" d="m92.4105,-386.0639c-28.49,0 -54.19,13.85 -70.12,34.78c-2.77,3.65 -7.19,5.37 -11.69,4.53c-3.26,-0.6 -6.64,-0.93 -10.12,-0.93c-29.08,0 -54.72,25.64 -54.72,54.72c0,3.83 0.29,5.13 0.19,3.53c0.87,13.73 10.87,25.15 24.37,27.81c32.07,6.34 75.55,3.48 127.22,-9.34c41.694,-10.35 86.569,-26.18 131.12,-44c9.988,-4.01 17.103,-13 18.697,-23.64s-2.571,-21.33 -10.943,-28.08c-14.971,-12.06 -34.361,-19.38 -55.125,-19.38c-13.952,0 -27.419,3.34 -39.125,9.16c-3.372,1.68 -7.254,1.68 -10.625,0c-11.707,-5.82 -25.169,-9.16 -39.129,-9.16z" id="path2882"/>
        </g>
      </g>
    </g>
  </g>
</svg>